# File created by Blade
# Date/Time:  Tue Sep 30 19:28:31 2014
#---------------------------------------------------------
:version 1.10
:name HOM
:units
  mass 1.0
  length 1.000000
  angle deg
:documentation
     Acclaim Skeleton File
:root
   axis xyz
   order TX TY TZ RX RY RZ
   position 0.000000 0.000000 0.000000
   orientation 0 0 0
:bonedata
   begin
      id 1
      name RightUpLeg_dum
      direction -1.000000 0.000000 0.000000
      length 3.766986
      axis 0.0 0.0 0.0 xyz
   end
   begin
      id 2
      name LeftUpLeg_dum
      direction 1.000000 0.000000 0.000000
      length 3.766986
      axis 0.0 0.0 0.0 xyz
   end
   begin
      id 3
      name Spine_dum
      direction 0.000000 1.000000 0.000000
      length 7.779697
      axis 0.0 0.0 0.0 xyz
   end
   begin
      id 4
      name RightUpLeg
      direction 0.000000 -1.000000 0.000000
      length 18.017682
      axis 0.0 0.0 0.0 xyz
      dof rx ry rz
   end
   begin
      id 5
      name RightLeg
      direction 0.000000 -1.000000 0.000000
      length 16.881075
      axis 0.0 0.0 0.0 xyz
      dof rx ry rz
   end
   begin
      id 6
      name RightFoot
      direction 0.000000 -0.258819 0.965926
      length 5.770812
      axis 15.0 0.0 0.0 xyz
      dof rx ry rz
   end
   begin
      id 7
      name RightToeBase
      direction 0.000000 0.000000 1.000000
      length 2.952750
      axis 0.0 0.0 0.0 xyz
      dof rx ry rz
   end
   begin
      id 8
      name LeftUpLeg
      direction 0.000000 -1.000000 0.000000
      length 18.017682
      axis 0.0 0.0 0.0 xyz
      dof rx ry rz
   end
   begin
      id 9
      name LeftLeg
      direction 0.000000 -1.000000 0.000000
      length 16.881075
      axis 0.0 0.0 0.0 xyz
      dof rx ry rz
   end
   begin
      id 10
      name LeftFoot
      direction 0.000000 -0.258819 0.965926
      length 5.770812
      axis 15.0 0.0 0.0 xyz
      dof rx ry rz
   end
   begin
      id 11
      name LeftToeBase
      direction 0.000000 0.000000 1.000000
      length 2.952750
      axis 0.0 0.0 0.0 xyz
      dof rx ry rz
   end
   begin
      id 12
      name Spine
      direction 0.000000 1.000000 0.000000
      length 0.000000
      axis 0.0 0.0 0.0 xyz
      dof rx ry rz
   end
   begin
      id 13
      name Spine_dum1
      direction 0.000000 1.000000 0.000000
      length 10.941760
      axis 0.0 0.0 0.0 xyz
   end
   begin
      id 14
      name Spine_dum2
      direction 0.000000 1.000000 0.000000
      length 10.941760
      axis 0.0 0.0 0.0 xyz
   end
   begin
      id 15
      name Spine_dum3
      direction 0.000000 1.000000 0.000000
      length 16.646042
      axis 0.0 0.0 0.0 xyz
   end
   begin
      id 16
      name RightShoulder
      direction -1.000000 0.000000 0.000000
      length 7.708937
      axis 0.0 0.0 90.0 xyz
      dof rx ry rz
   end
   begin
      id 17
      name RightArm
      direction -1.000000 0.000000 0.000000
      length 11.521345
      axis 0.0 0.0 90.0 xyz
      dof rx ry rz
   end
   begin
      id 18
      name RightForeArm
      direction -1.000000 0.000000 0.000000
      length 10.175898
      axis 0.0 0.0 90.0 xyz
      dof ry rz rx
   end
   begin
      id 19
      name RightHand
      direction -1.000000 0.000000 0.000000
      length 0.000000
      axis 0.0 0.0 90.0 xyz
      dof rx ry rz
   end
   begin
      id 20
      name RightHand_dum1
      direction -1.000000 0.000000 0.000000
      length 3.937000
      axis 0.0 0.0 90.0 xyz
   end
   begin
      id 21
      name RightHand_dum2
      direction 0.000000 0.000000 0.000000
      length 0.000000
      axis 0.0 0.0 90.0 xyz
   end
   begin
      id 22
      name RightHandThumb1
      direction 0.000000 0.000000 1.000000
      length 3.937000
      axis 0.0 0.0 90.0 xyz
      dof rx rz ry
   end
   begin
      id 23
      name LeftShoulder
      direction 1.000000 0.000000 0.000000
      length 7.708937
      axis 0.0 0.0 -90.0 xyz
      dof rx ry rz
   end
   begin
      id 24
      name LeftArm
      direction 1.000000 0.000000 0.000000
      length 11.521345
      axis 0.0 0.0 -90.0 xyz
      dof rx ry rz
   end
   begin
      id 25
      name LeftForeArm
      direction 1.000000 0.000000 0.000000
      length 10.175898
      axis 0.0 0.0 -90.0 xyz
      dof ry rz rx
   end
   begin
      id 26
      name LeftHand
      direction 1.000000 0.000000 0.000000
      length 0.000000
      axis 0.0 0.0 -90.0 xyz
      dof rx ry rz
   end
   begin
      id 27
      name LeftHand_dum1
      direction 1.000000 0.000000 0.000000
      length 3.937000
      axis 0.0 0.0 -90.0 xyz
   end
   begin
      id 28
      name LeftHand_dum2
      direction 0.000000 0.000000 0.000000
      length 0.000000
      axis 0.0 0.0 -90.0 xyz
   end
   begin
      id 29
      name LeftHandThumb1
      direction 0.000000 0.000000 1.000000
      length 3.937000
      axis 0.0 0.0 -90.0 xyz
      dof rx rz ry
   end
   begin
      id 30
      name Head
      direction 0.000000 1.000000 0.000000
      length 4.527550
      axis 0.0 0.0 0.0 xyz
      dof rx ry rz
   end
:hierarchy
   begin
      root RightUpLeg_dum LeftUpLeg_dum Spine_dum
      RightUpLeg_dum RightUpLeg
      LeftUpLeg_dum LeftUpLeg
      Spine_dum Spine
      RightUpLeg RightLeg
      RightLeg RightFoot
      RightFoot RightToeBase
      LeftUpLeg LeftLeg
      LeftLeg LeftFoot
      LeftFoot LeftToeBase
      Spine Spine_dum1 Spine_dum2 Spine_dum3
      Spine_dum1 RightShoulder
      Spine_dum2 LeftShoulder
      Spine_dum3 Head
      RightShoulder RightArm
      RightArm RightForeArm
      RightForeArm RightHand
      RightHand RightHand_dum1 RightHand_dum2
      RightHand_dum2 RightHandThumb1
      LeftShoulder LeftArm
      LeftArm LeftForeArm
      LeftForeArm LeftHand
      LeftHand LeftHand_dum1 LeftHand_dum2
      LeftHand_dum2 LeftHandThumb1
   end

# File created by Blade
# Date/Time:  Mon Sep 22 15:39:46 2014
# Frame Rate: 120.000 fps
#------------------------------------------------------
:FULLY-SPECIFIED
:DEGREES
836
root 2.367711 37.004118 2.752085 -1.714554 -1.815061 1.686721
RightUpLeg 10.625870 -7.219400 -4.089006
RightLeg -5.573597 -0.000000 0.000000
RightFoot -12.635184 -14.489415 16.137803
RightToeBase 15.411420 -0.000000 -0.000000
LeftUpLeg 8.912609 0.622906 1.325053
LeftLeg -3.261474 -0.000000 0.000000
LeftFoot -10.028572 14.004218 -16.913619
LeftToeBase 9.512740 -0.000000 -0.000000
Spine -1.863405 13.057759 -3.133451
RightShoulder 10.062843 1.529583 -29.064755
RightArm 68.898730 26.020015 90.211242
RightForeArm 72.652532 -0.000000 108.122043
RightHand 17.329685 -0.000000 -8.988363
RightHandThumb1 -24.326973 -0.000000 -32.862282
LeftShoulder -4.447199 37.116232 1.469412
LeftArm 49.164866 22.730709 -56.677447
LeftForeArm 25.192929 -0.000000 19.306563
LeftHand -13.531578 -0.000000 -8.271659
LeftHandThumb1 -26.253704 0.000000 33.147579
Head 1.426566 -9.716670 2.394345
837
root 2.367853 37.005135 2.751822 -1.708601 -1.737802 1.693312
RightUpLeg 10.621858 -7.253736 -4.092342
RightLeg -5.552630 -0.000000 0.000000
RightFoot -12.651868 -14.540845 16.130737
RightToeBase 15.408608 -0.000000 -0.000000
LeftUpLeg 8.894434 0.587457 1.323708
LeftLeg -3.260535 -0.000000 0.000000
LeftFoot -10.001443 13.952847 -16.906739
LeftToeBase 9.536154 -0.000000 -0.000000
Spine -1.895831 12.949007 -3.206489
RightShoulder 10.053697 1.152841 -28.951046
RightArm 68.710987 26.876239 90.082955
RightForeArm 72.727032 -0.000000 107.987752
RightHand 17.408710 0.000000 -8.891634
RightHandThumb1 -24.326973 -0.000000 -32.862282
LeftShoulder -4.516881 37.152626 1.435516
LeftArm 49.034585 22.586337 -56.764719
LeftForeArm 25.142267 -0.000000 19.254808
LeftHand -13.383819 -0.000000 -8.155429
LeftHandThumb1 -26.253704 0.000000 33.147579
Head 1.430032 -9.960787 2.630882
838
root 2.367417 37.005391 2.751584 -1.698536 -1.652539 1.699837
RightUpLeg 10.626125 -7.283007 -4.099652
RightLeg -5.545651 -0.000000 0.000000
RightFoot -12.674679 -14.551924 16.181690
RightToeBase 15.378884 -0.000000 -0.000000
LeftUpLeg 8.869232 0.530096 1.320635
LeftLeg -3.254917 -0.000000 0.000000
LeftFoot -9.977679 13.916240 -16.897121
LeftToeBase 9.551874 -0.000000 -0.000000
Spine -1.927456 12.851377 -3.285817
RightShoulder 9.994826 0.972869 -28.812728
RightArm 68.310515 27.658016 89.935004
RightForeArm 72.664524 -0.000000 107.846436
RightHand 17.456892 -0.000000 -9.078412
RightHandThumb1 -24.326973 -0.000000 -32.862282
LeftShoulder -4.558529 37.138968 1.413260
LeftArm 48.857209 22.453074 -56.845726
LeftForeArm 25.112305 0.000000 19.247748
LeftHand -13.464404 -0.000000 -8.081153
LeftHandThumb1 -26.253704 0.000000 33.147579
Head 1.373480 -10.155368 2.890088
839
root 2.367202 37.005936 2.750679 -1.687740 -1.564443 1.710073
RightUpLeg 10.622497 -7.311075 -4.105635
RightLeg -5.531039 -0.000000 0.000000
RightFoot -12.709436 -14.569683 16.217017
RightToeBase 15.615158 -0.000000 -0.000000
LeftUpLeg 8.839814 0.452655 1.313296
LeftLeg -3.243008 -0.000000 0.000000
LeftFoot -9.963601 13.883900 -16.905850
LeftToeBase 9.528364 -0.000000 -0.000000
Spine -1.951513 12.731233 -3.357374
RightShoulder 9.946458 0.765164 -28.693005
RightArm 67.934700 28.448156 89.777060
RightForeArm 72.820653 -0.000000 107.672044
RightHand 17.558535 0.000000 -8.967410
RightHandThumb1 -24.326973 -0.000000 -32.862282
LeftShoulder -4.655689 37.178506 1.334217
LeftArm 48.760665 22.407142 -56.730953
LeftForeArm 24.941614 0.000000 19.305850
LeftHand -13.632058 -0.000000 -7.968334
LeftHandThumb1 -26.253704 0.000000 33.147579
Head 1.331928 -10.406133 3.081302
840
root 2.366459 37.006901 2.749305 -1.672084 -1.479031 1.714626
RightUpLeg 10.617972 -7.340710 -4.104309
RightLeg -5.527207 -0.000000 0.000000
RightFoot -12.738134 -14.630961 16.246250
RightToeBase 15.660257 -0.000000 -0.000000
LeftUpLeg 8.811083 0.374526 1.310592
LeftLeg -3.246342 -0.000000 0.000000
LeftFoot -9.933316 13.870657 -16.901782
LeftToeBase 9.480068 -0.000000 -0.000000
Spine -1.974395 12.606901 -3.420688
RightShoulder 9.887515 0.568610 -28.566401
RightArm 67.574848 29.193548 89.653529
RightForeArm 72.983486 -0.000000 107.457277
RightHand 17.745598 -0.000000 -8.781141
RightHandThumb1 -24.326973 -0.000000 -32.862282
LeftShoulder -4.757471 37.207832 1.257488
LeftArm 48.666349 22.343133 -56.644469
LeftForeArm 24.666369 -0.000000 19.332224
LeftHand -13.632293 -0.000000 -7.764478
LeftHandThumb1 -26.253704 0.000000 33.147579
Head 1.285184 -10.708323 3.272662
841
root 2.365982 37.007685 2.748954 -1.660458 -1.385391 1.720889
RightUpLeg 10.620388 -7.419110 -4.109074
RightLeg -5.524016 -0.000000 0.000000
RightFoot -12.742594 -14.644887 16.243420
RightToeBase 15.625776 -0.000000 -0.000000
LeftUpLeg 8.787607 0.274593 1.304524
LeftLeg -3.247843 -0.000000 0.000000
LeftFoot -9.918293 13.862987 -16.916750
LeftToeBase 9.498526 -0.000000 -0.000000
Spine -1.984320 12.454431 -3.482332
RightShoulder 9.814723 0.388323 -28.423374
RightArm 67.267379 29.880669 89.603917
RightForeArm 73.058708 -0.000000 107.257086
RightHand 17.730679 0.000000 -8.406540
RightHandThumb1 -24.326973 -0.000000 -32.862282
LeftShoulder -4.876270 37.207203 1.178471
LeftArm 48.532751 22.284932 -56.617338
LeftForeArm 24.598384 -0.000000 19.348696
LeftHand -13.716933 -0.000000 -8.109040
LeftHandThumb1 -26.253704 0.000000 33.147579
Head 1.199088 -10.934233 3.468672
842
root 2.363347 37.008283 2.747215 -1.641510 -1.291551 1.724732
RightUpLeg 10.610405 -7.489792 -4.106973
RightLeg -5.513506 -0.000000 0.000000
RightFoot -12.761631 -14.664014 16.269842
RightToeBase 15.607982 -0.000000 -0.000000
LeftUpLeg 8.758334 0.207780 1.305894
LeftLeg -3.256608 -0.000000 0.000000
LeftFoot -9.894470 13.835053 -16.914260
LeftToeBase 9.513676 -0.000000 -0.000000
Spine -1.999530 12.329885 -3.546083
RightShoulder 9.695959 0.216248 -28.276996
RightArm 66.982465 30.480443 89.641204
RightForeArm 73.151329 -0.000000 107.026964
RightHand 17.886588 -0.000000 -8.237354
RightHandThumb1 -24.326973 -0.000000 -32.862282
LeftShoulder -4.937267 37.225497 1.139284
LeftArm 48.393470 22.197443 -56.610760
LeftForeArm 24.532533 -0.000000 19.374369
LeftHand -13.584040 -0.000000 -8.170291
LeftHandThumb1 -26.253704 0.000000 33.147579
Head 1.101832 -11.180890 3.649099
843
root 2.360366 37.008937 2.745248 -1.618507 -1.209547 1.720441
RightUpLeg 10.593763 -7.557245 -4.094506
RightLeg -5.503267 -0.000000 0.000000
RightFoot -12.777194 -14.693576 16.278764
RightToeBase 15.624929 -0.000000 -0.000000
LeftUpLeg 8.728785 0.145053 1.318295
LeftLeg -3.268705 -0.000000 0.000000
LeftFoot -9.874264 13.799127 -16.928377
LeftToeBase 9.516697 -0.000000 -0.000000
Spine -2.014009 12.195368 -3.590082
RightShoulder 9.576138 -0.013569 -28.136991
RightArm 66.836474 31.036889 89.724372
RightForeArm 73.209141 -0.000000 106.768217
RightHand 18.005414 -0.000000 -8.072246
RightHandThumb1 -24.326973 -0.000000 -32.862282
LeftShoulder -5.029368 37.292023 1.074241
LeftArm 48.305563 22.085794 -56.602903
LeftForeArm 24.418497 -0.000000 19.379983
LeftHand -13.577538 -0.000000 -8.035559
LeftHandThumb1 -26.253704 0.000000 33.147579
Head 0.996733 -11.398866 3.810355
844
root 2.359487 37.010451 2.744484 -1.610298 -1.134322 1.727671
RightUpLeg 10.595146 -7.627131 -4.100241
RightLeg -5.498070 -0.000000 0.000000
RightFoot -12.772400 -14.698432 16.278831
RightToeBase 15.606342 -0.000000 -0.000000
LeftUpLeg 8.708751 0.083721 1.316946
LeftLeg -3.270989 -0.000000 0.000000
LeftFoot -9.840887 13.769857 -16.932902
LeftToeBase 9.506348 -0.000000 -0.000000
Spine -2.022892 12.061939 -3.637468
RightShoulder 9.484344 -0.166963 -27.999565
RightArm 66.631487 31.568145 89.848081
RightForeArm 73.237576 -0.000000 106.533587
RightHand 18.041089 -0.000000 -7.983847
RightHandThumb1 -24.326973 -0.000000 -32.862282
LeftShoulder -5.071495 37.383401 1.036527
LeftArm 48.190480 21.954202 -56.612475
LeftForeArm 24.273807 -0.000000 19.430348
LeftHand -13.552699 -0.000000 -7.826090
LeftHandThumb1 -26.253704 0.000000 33.147579
Head 0.917821 -11.621752 3.968025
